<?xml version="1.0" encoding="UTF-8" standalone="no"?>
<!-- Created with Inkscape (http://www.inkscape.org/) -->

<svg
   width="297mm"
   height="210mm"
   viewBox="0 0 297 210"
   version="1.1"
   id="svg1"
   inkscape:version="1.3 (0e150ed, 2023-07-21)"
   sodipodi:docname="Solución Reto 1 (corazón).svg"
   xmlns:inkscape="http://www.inkscape.org/namespaces/inkscape"
   xmlns:sodipodi="http://sodipodi.sourceforge.net/DTD/sodipodi-0.dtd"
   xmlns="http://www.w3.org/2000/svg"
   xmlns:svg="http://www.w3.org/2000/svg">
  <sodipodi:namedview
     id="namedview1"
     pagecolor="#ffffff"
     bordercolor="#000000"
     borderopacity="0.25"
     inkscape:showpageshadow="2"
     inkscape:pageopacity="0.0"
     inkscape:pagecheckerboard="0"
     inkscape:deskcolor="#d1d1d1"
     inkscape:document-units="mm"
     inkscape:zoom="0.49512355"
     inkscape:cx="549.35783"
     inkscape:cy="396.87064"
     inkscape:window-width="1312"
     inkscape:window-height="593"
     inkscape:window-x="54"
     inkscape:window-y="27"
     inkscape:window-maximized="1"
     inkscape:current-layer="layer1" />
  <defs
     id="defs1" />
  <g
     inkscape:label="Capa 1"
     inkscape:groupmode="layer"
     id="layer1">
    <path
       id="path1"
       style="fill:none;stroke-width:0.79375;stroke:#000000;stroke-opacity:1"
       d="M 114.35684 54.50675 A 26.71892 26.71892 0 0 0 87.638062 81.225533 A 26.71892 26.71892 0 0 0 93.003109 97.171847 L 92.918359 97.171847 L 141.47302 162.45107 L 189.35847 97.002348 L 189.27527 97.002348 A 26.71892 26.71892 0 0 0 194.51371 81.225533 A 26.71892 26.71892 0 0 0 167.79493 54.50675 A 26.71892 26.71892 0 0 0 141.07614 81.225533 A 26.71892 26.71892 0 0 0 146.37039 97.077795 L 135.76742 97.096399 A 26.71892 26.71892 0 0 0 141.07614 81.225533 A 26.71892 26.71892 0 0 0 114.35684 54.50675 z " />
  </g>
</svg>
