<?xml version="1.0" encoding="UTF-8" standalone="no"?>
<!-- Created with Inkscape (http://www.inkscape.org/) -->

<svg
   width="297mm"
   height="210mm"
   viewBox="0 0 297 210"
   version="1.1"
   id="svg1"
   inkscape:version="1.3 (0e150ed, 2023-07-21)"
   sodipodi:docname="Solución Reto 5.svg"
   xmlns:inkscape="http://www.inkscape.org/namespaces/inkscape"
   xmlns:sodipodi="http://sodipodi.sourceforge.net/DTD/sodipodi-0.dtd"
   xmlns="http://www.w3.org/2000/svg"
   xmlns:svg="http://www.w3.org/2000/svg">
  <sodipodi:namedview
     id="namedview1"
     pagecolor="#ffffff"
     bordercolor="#000000"
     borderopacity="0.25"
     inkscape:showpageshadow="2"
     inkscape:pageopacity="0.0"
     inkscape:pagecheckerboard="0"
     inkscape:deskcolor="#d1d1d1"
     inkscape:document-units="mm"
     inkscape:zoom="0.4489899"
     inkscape:cx="603.57705"
     inkscape:cy="345.21935"
     inkscape:window-width="1312"
     inkscape:window-height="704"
     inkscape:window-x="54"
     inkscape:window-y="27"
     inkscape:window-maximized="1"
     inkscape:current-layer="layer1" />
  <defs
     id="defs1" />
  <g
     inkscape:label="Capa 1"
     inkscape:groupmode="layer"
     id="layer1">
    <path
       style="fill:#ff8080;stroke:#000000;stroke-width:1.058"
       d="M 14.732143,14.142857 14.142857,67.178572 24.749999,26.517857 76.017856,16.5 Z"
       id="path1" />
    <path
       style="fill:#ff8080;stroke:#000000;stroke-width:1.058"
       d="M 15.383386,196.91014 68.411719,195.84672 27.440256,186.51158 15.829927,135.58073 Z"
       id="path2" />
    <path
       style="fill:#ff8080;stroke:#000000;stroke-width:1.058"
       d="m 282.98797,13.567871 -53.03899,-0.0089 40.77436,10.16153 10.57831,51.155159 z"
       id="path3" />
    <path
       style="fill:#ff8080;stroke:#000000;stroke-width:1.058"
       d="m 282.46844,196.71009 -1.93418,-53.00371 -8.661,41.11924 -50.73328,12.44523 z"
       id="path4" />
    <path
       style="fill:#ffd5d5;stroke:#000000;stroke-width:1.058"
       d="M 13.743549,75.24342 59.41545,88.657371 30.557169,102.64942 65.22317,112.37471 16.419213,128.26402 Z"
       id="path5" />
    <path
       style="fill:#ffd5d5;stroke:#000000;stroke-width:1.058"
       d="m 282.01765,135.40794 -44.96514,-15.62028 29.5049,-12.57135 -34.15175,-11.400473 49.51926,-13.495883 z"
       id="path6" />
    <path
       style="fill:#008080;stroke:#000000;stroke-width:1.058"
       d="M 85.446426,18.857143 153.80357,28.875 l 12.37499,-15.321429 57.16072,16.5 -61.28572,-25.3392855 -20.625,14.7321425 z"
       id="path7" />
    <path
       style="fill:#008080;stroke:#000000;stroke-width:1.058"
       d="m 73.660712,186.80357 68.357148,10.01786 12.37499,-15.32143 57.16072,16.5 -61.28572,-25.33929 -20.625,14.73215 z"
       id="path8" />
    <path
       style="fill:#0000ff;stroke:#000000;stroke-width:1.04406"
       d="M 269.8195,64.607025 219.8651,85.457083 195.45557,46.735547 236.89501,28.864067 Z"
       id="path9" />
    <path
       style="fill:#0000ff;stroke:#000000;stroke-width:1.02049"
       d="M 101.90394,47.699715 55.873377,26.082223 33.381167,66.228996 71.565617,84.758274 Z"
       id="path10" />
    <path
       style="fill:#0000ff;stroke:#000000;stroke-width:1.058"
       d="m 34.178571,161.46429 51.857142,20.625 L 111.375,143.78572 68.357141,126.10714 Z"
       id="path11" />
    <path
       style="fill:#0000ff;stroke:#000000;stroke-width:1.05857"
       d="M 265.08794,166.17846 213.17409,186.80317 187.8071,148.50014 230.872,130.82183 Z"
       id="path12" />
    <path
       style="fill:#ffff00;stroke:#000000;stroke-width:1.058"
       d="m 143.78571,44.785715 -8.83929,43.017855 -45.374994,15.91071 46.553564,12.96429 12.96429,46.55357 10.01786,-45.96429 45.37499,-10.60714 -45.96428,-21.803569 z"
       id="path13" />
    <path
       style="fill:#ff0000;stroke:#000000;stroke-width:1.058"
       d="M 90.75,82.499998 114.91071,50.678571 123.75,78.374998 Z"
       id="path14" />
    <path
       style="fill:#ff0000;stroke:#000000;stroke-width:1.058"
       d="m 199.71463,129.87056 -33.62551,21.57935 1.218,-29.04723 z"
       id="path15" />
    <path
       style="fill:#ff0000;stroke:#000000;stroke-width:1.058"
       d="M 131.84381,152.28841 99.357054,129.02999 126.79459,119.41713 Z"
       id="path16" />
    <path
       style="fill:#ff0000;stroke:#000000;stroke-width:1.058"
       d="m 163.87614,48.405701 31.92212,24.027509 -27.65924,8.954964 z"
       id="path17" />
  </g>
</svg>
