<?xml version="1.0" encoding="UTF-8" standalone="no"?>
<!-- Created with Inkscape (http://www.inkscape.org/) -->

<svg
   width="594mm"
   height="420mm"
   viewBox="0 0 594 420"
   version="1.1"
   id="svg1"
   inkscape:version="1.3 (0e150ed, 2023-07-21)"
   sodipodi:docname="Solución Reto 11.svg"
   xmlns:inkscape="http://www.inkscape.org/namespaces/inkscape"
   xmlns:sodipodi="http://sodipodi.sourceforge.net/DTD/sodipodi-0.dtd"
   xmlns="http://www.w3.org/2000/svg"
   xmlns:svg="http://www.w3.org/2000/svg">
  <sodipodi:namedview
     id="namedview1"
     pagecolor="#ffffff"
     bordercolor="#000000"
     borderopacity="0.25"
     inkscape:showpageshadow="2"
     inkscape:pageopacity="0.0"
     inkscape:pagecheckerboard="0"
     inkscape:deskcolor="#d1d1d1"
     inkscape:document-units="mm"
     inkscape:zoom="0.22627417"
     inkscape:cx="1087.1767"
     inkscape:cy="777.81746"
     inkscape:window-width="1312"
     inkscape:window-height="704"
     inkscape:window-x="54"
     inkscape:window-y="27"
     inkscape:window-maximized="1"
     inkscape:current-layer="layer3" />
  <defs
     id="defs1">
    <marker
       style="overflow:visible"
       id="Triangle"
       refX="0"
       refY="0"
       orient="auto-start-reverse"
       inkscape:stockid="Triangle arrow"
       markerWidth="1"
       markerHeight="1"
       viewBox="0 0 1 1"
       inkscape:isstock="true"
       inkscape:collect="always"
       preserveAspectRatio="xMidYMid">
      <path
         transform="scale(0.5)"
         style="fill:context-stroke;fill-rule:evenodd;stroke:context-stroke;stroke-width:1pt"
         d="M 5.77,0 -2.88,5 V -5 Z"
         id="path135" />
    </marker>
    <rect
       x="359.07352"
       y="598.81213"
       width="102.36733"
       height="16.967285"
       id="rect12" />
  </defs>
  <g
     inkscape:label="Eslabones"
     inkscape:groupmode="layer"
     id="layer1">
    <path
       id="rect1"
       style="fill:#2a2aff;stroke:#000000;stroke-width:0.79375;stroke-dasharray:none"
       d="m 386.91425,65.731237 a 29.216866,29.216866 0 0 0 -41.27665,-1.86631 29.216866,29.216866 0 0 0 -1.86631,41.276653 29.216866,29.216866 0 0 0 0.28794,0.2731 l -0.0145,0.0132 99.83214,109.28743 0.26698,0.29226 0.021,-0.0192 a 29.208208,29.208208 0 0 0 40.97629,1.59266 29.208208,29.208208 0 0 0 2.12586,-40.96571 l 0.007,-0.006 -0.25303,-0.277 a 29.208208,29.208208 0 0 0 -0.0136,-0.0156 29.208208,29.208208 0 0 0 -0.005,-0.005 l -99.82741,-109.282243 -7.4e-4,6.8e-4 a 29.216866,29.216866 0 0 0 -0.25959,-0.29901 z"
       inkscape:transform-center-x="-49.278848"
       inkscape:transform-center-y="53.940522" />
    <ellipse
       style="fill:#ffffff;stroke:#000000;stroke-width:0.79375;stroke-dasharray:none"
       id="path3"
       cx="310.29651"
       cy="-212.11914"
       rx="9.454258"
       ry="9.4542589"
       inkscape:transform-center-x="0.21570037"
       inkscape:transform-center-y="-0.23614114"
       transform="rotate(47.588849)" />
    <ellipse
       style="fill:#f9f9f9;stroke:#000000;stroke-width:0.79375;stroke-dasharray:none"
       id="ellipse3"
       cx="456.64877"
       cy="-212.11914"
       rx="9.454258"
       ry="9.4542589"
       inkscape:transform-center-x="-98.491012"
       inkscape:transform-center-y="107.81926"
       transform="rotate(47.588849)" />
    <ellipse
       style="fill:#ffffff;stroke:#000000;stroke-width:0.79375;stroke-dasharray:none"
       id="ellipse14"
       cx="310.29651"
       cy="-212.11914"
       rx="9.454258"
       ry="9.4542589"
       inkscape:transform-center-x="0.21570037"
       inkscape:transform-center-y="-0.23614114"
       transform="rotate(47.588849)" />
    <ellipse
       style="fill:#f9f9f9;stroke:#000000;stroke-width:0.79375;stroke-dasharray:none"
       id="ellipse15"
       cx="456.64877"
       cy="-212.11914"
       rx="9.454258"
       ry="9.4542589"
       inkscape:transform-center-x="-98.491012"
       inkscape:transform-center-y="107.81926"
       transform="rotate(47.588849)" />
    <ellipse
       style="fill:#ffffff;stroke:#000000;stroke-width:0.79375;stroke-dasharray:none"
       id="ellipse16"
       cx="310.29651"
       cy="-212.11914"
       rx="9.454258"
       ry="9.4542589"
       inkscape:transform-center-x="0.21570037"
       inkscape:transform-center-y="-0.23614114"
       transform="rotate(47.588849)" />
    <ellipse
       style="fill:#f9f9f9;stroke:#000000;stroke-width:0.79375;stroke-dasharray:none"
       id="ellipse17"
       cx="456.64877"
       cy="-212.11914"
       rx="9.454258"
       ry="9.4542589"
       inkscape:transform-center-x="-98.491012"
       inkscape:transform-center-y="107.81926"
       transform="rotate(47.588849)" />
    <path
       id="path24"
       style="fill:#cccccc;stroke:#000000;stroke-width:0.79375;stroke-dasharray:none"
       d="m 118.9783,163.42603 a 29.216866,29.216866 0 0 0 -29.216812,29.21682 29.216866,29.216866 0 0 0 29.216812,29.21682 29.216866,29.216866 0 0 0 0.39584,-0.0284 v 0.0196 h 148.02095 0.39584 v -0.0284 a 29.208208,29.208208 0 0 0 28.81219,-29.17962 29.208208,29.208208 0 0 0 -28.81219,-29.19873 v -0.009 h -0.37517 a 29.208208,29.208208 0 0 0 -0.0207,-5.2e-4 29.208208,29.208208 0 0 0 -0.007,5.2e-4 H 119.37414 v 10e-4 a 29.216866,29.216866 0 0 0 -0.39584,-0.01 z"
       inkscape:transform-center-x="-73.391272"
       inkscape:transform-center-y="7.133789e-06" />
    <ellipse
       style="fill:#ffffff;stroke:#000000;stroke-width:0.79375;stroke-dasharray:none"
       id="ellipse25"
       cx="119.79103"
       cy="192.64284"
       rx="9.454258"
       ry="9.4542589" />
    <ellipse
       style="fill:#f9f9f9;stroke:#000000;stroke-width:0.79375;stroke-dasharray:none"
       id="ellipse26"
       cx="266.14334"
       cy="192.64284"
       rx="9.454258"
       ry="9.4542589"
       inkscape:transform-center-x="-146.35231" />
    <ellipse
       style="fill:#ffffff;stroke:#000000;stroke-width:0.79375;stroke-dasharray:none"
       id="ellipse27"
       cx="119.79103"
       cy="192.64284"
       rx="9.454258"
       ry="9.4542589" />
    <ellipse
       style="fill:#f9f9f9;stroke:#000000;stroke-width:0.79375;stroke-dasharray:none"
       id="ellipse28"
       cx="266.14334"
       cy="192.64284"
       rx="9.454258"
       ry="9.4542589"
       inkscape:transform-center-x="-146.35231" />
    <ellipse
       style="fill:#ffffff;stroke:#000000;stroke-width:0.79375;stroke-dasharray:none"
       id="ellipse29"
       cx="119.79103"
       cy="192.64284"
       rx="9.454258"
       ry="9.4542589" />
    <ellipse
       style="fill:#f9f9f9;stroke:#000000;stroke-width:0.79375;stroke-dasharray:none"
       id="ellipse30"
       cx="266.14334"
       cy="192.64284"
       rx="9.454258"
       ry="9.4542589"
       inkscape:transform-center-x="-146.35231" />
    <path
       id="path19"
       style="fill:#8080ff;stroke:#000000;stroke-width:0.79375;stroke-dasharray:none"
       d="m 243.85295,173.59379 a 29.216866,29.216866 0 0 0 1.30138,41.29832 29.216866,29.216866 0 0 0 41.29832,-1.30139 29.216866,29.216866 0 0 0 0.25025,-0.30801 l 0.0143,0.0134 101.31808,-107.91127 0.27095,-0.28858 -0.0207,-0.0194 a 29.208208,29.208208 0 0 0 -1.55123,-40.977873 29.208208,29.208208 0 0 0 -41.00818,1.01877 l -0.007,-0.006 -0.2568,0.27351 a 29.208208,29.208208 0 0 0 -0.0145,0.0147 29.208208,29.208208 0 0 0 -0.004,0.005 l -101.31327,107.906143 7.3e-4,6.9e-4 a 29.216866,29.216866 0 0 0 -0.27824,0.28173 z"
       inkscape:transform-center-x="-50.005509"
       inkscape:transform-center-y="-53.267562" />
    <ellipse
       style="fill:#ffffff;stroke:#000000;stroke-width:0.79375;stroke-dasharray:none"
       id="ellipse19"
       cx="41.171787"
       cy="325.81451"
       rx="9.454258"
       ry="9.4542589"
       inkscape:transform-center-x="0.2189411"
       inkscape:transform-center-y="0.23315489"
       transform="rotate(-46.804896)" />
    <ellipse
       style="fill:#f9f9f9;stroke:#000000;stroke-width:0.79375;stroke-dasharray:none"
       id="ellipse20"
       cx="187.52408"
       cy="325.81451"
       rx="9.454258"
       ry="9.4542589"
       inkscape:transform-center-x="-99.956982"
       inkscape:transform-center-y="-106.46164"
       transform="rotate(-46.804896)" />
    <ellipse
       style="fill:#ffffff;stroke:#000000;stroke-width:0.79375;stroke-dasharray:none"
       id="ellipse21"
       cx="41.171787"
       cy="325.81451"
       rx="9.454258"
       ry="9.4542589"
       inkscape:transform-center-x="0.2189411"
       inkscape:transform-center-y="0.23315489"
       transform="rotate(-46.804896)" />
    <ellipse
       style="fill:#f9f9f9;stroke:#000000;stroke-width:0.79375;stroke-dasharray:none"
       id="ellipse22"
       cx="187.52408"
       cy="325.81451"
       rx="9.454258"
       ry="9.4542589"
       inkscape:transform-center-x="-99.956982"
       inkscape:transform-center-y="-106.46164"
       transform="rotate(-46.804896)" />
    <ellipse
       style="fill:#ffffff;stroke:#000000;stroke-width:0.79375;stroke-dasharray:none"
       id="ellipse23"
       cx="41.171787"
       cy="325.81451"
       rx="9.454258"
       ry="9.4542589"
       inkscape:transform-center-x="0.2189411"
       inkscape:transform-center-y="0.23315489"
       transform="rotate(-46.804896)" />
    <ellipse
       style="fill:#f9f9f9;stroke:#000000;stroke-width:0.79375;stroke-dasharray:none"
       id="ellipse24"
       cx="187.52408"
       cy="325.81451"
       rx="9.454258"
       ry="9.4542589"
       inkscape:transform-center-x="-99.956982"
       inkscape:transform-center-y="-106.46164"
       transform="rotate(-46.804896)" />
    <path
       id="path30"
       style="fill:#808080;stroke:#000000;stroke-width:0.79375;stroke-dasharray:none"
       d="m 155.86569,337.51252 a 29.216866,29.216866 0 0 0 38.91343,13.89208 29.216866,29.216866 0 0 0 13.89207,-38.91344 29.216866,29.216866 0 0 0 -0.19516,-0.34555 l 0.0177,-0.008 -63.38276,-133.76408 -0.1695,-0.35771 -0.0257,0.0122 A 29.208208,29.208208 0 0 0 106.20923,164.48567 29.208208,29.208208 0 0 0 92.160226,203.0257 l -0.008,0.004 0.16065,0.33903 a 29.208208,29.208208 0 0 0 0.008,0.0189 29.208208,29.208208 0 0 0 0.003,0.006 l 63.379744,133.75773 9e-4,-4.3e-4 a 29.216866,29.216866 0 0 0 0.16047,0.36199 z"
       inkscape:transform-center-x="-31.247497"
       inkscape:transform-center-y="65.939794" />
    <ellipse
       style="fill:#808080;stroke:#000000;stroke-width:0.79375;stroke-dasharray:none"
       id="ellipse31"
       cx="-370.93359"
       cy="25.546749"
       rx="9.454258"
       ry="9.4542589"
       inkscape:transform-center-x="-62.668198"
       transform="rotate(-115.35346)"
       inkscape:transform-center-y="132.2561" />
    <ellipse
       style="fill:#808080;stroke:#000000;stroke-width:0.79375;stroke-dasharray:none"
       id="ellipse32"
       cx="-224.58136"
       cy="25.546749"
       rx="9.454258"
       ry="9.4542589"
       transform="rotate(-115.35346)" />
    <path
       id="path32"
       style="fill:#808080;stroke:#000000;stroke-width:0.79375;stroke-dasharray:none"
       d="m 155.86569,337.51252 a 29.216866,29.216866 0 0 0 38.91343,13.89208 29.216866,29.216866 0 0 0 13.89207,-38.91344 29.216866,29.216866 0 0 0 -0.19516,-0.34555 l 0.0177,-0.008 -63.38276,-133.76408 -0.1695,-0.35771 -0.0257,0.0122 A 29.208208,29.208208 0 0 0 106.20923,164.48567 29.208208,29.208208 0 0 0 92.160226,203.0257 l -0.008,0.004 0.16065,0.33903 a 29.208208,29.208208 0 0 0 0.008,0.0189 29.208208,29.208208 0 0 0 0.003,0.006 l 63.379744,133.75773 9e-4,-4.3e-4 a 29.216866,29.216866 0 0 0 0.16047,0.36199 z"
       inkscape:transform-center-x="-31.247497"
       inkscape:transform-center-y="65.939794" />
    <ellipse
       style="fill:#808080;stroke:#000000;stroke-width:0.79375;stroke-dasharray:none"
       id="ellipse33"
       cx="-370.93359"
       cy="25.546749"
       rx="9.454258"
       ry="9.4542589"
       inkscape:transform-center-x="-62.668198"
       transform="rotate(-115.35346)"
       inkscape:transform-center-y="132.2561" />
    <ellipse
       style="fill:#808080;stroke:#000000;stroke-width:0.79375;stroke-dasharray:none"
       id="ellipse34"
       cx="-224.58136"
       cy="25.546749"
       rx="9.454258"
       ry="9.4542589"
       transform="rotate(-115.35346)" />
    <path
       id="path34"
       style="fill:#808080;stroke:#000000;stroke-width:0.79375;stroke-dasharray:none"
       d="m 155.86569,337.51252 a 29.216866,29.216866 0 0 0 38.91343,13.89208 29.216866,29.216866 0 0 0 13.89207,-38.91344 29.216866,29.216866 0 0 0 -0.19516,-0.34555 l 0.0177,-0.008 -63.38276,-133.76408 -0.1695,-0.35771 -0.0257,0.0122 A 29.208208,29.208208 0 0 0 106.20923,164.48567 29.208208,29.208208 0 0 0 92.160226,203.0257 l -0.008,0.004 0.16065,0.33903 a 29.208208,29.208208 0 0 0 0.008,0.0189 29.208208,29.208208 0 0 0 0.003,0.006 l 63.379744,133.75773 9e-4,-4.3e-4 a 29.216866,29.216866 0 0 0 0.16047,0.36199 z"
       inkscape:transform-center-x="-31.247497"
       inkscape:transform-center-y="65.939794" />
    <ellipse
       style="fill:#ffffff;stroke:#000000;stroke-width:0.79375;stroke-dasharray:none"
       id="ellipse35"
       cx="-370.93359"
       cy="25.546749"
       rx="9.454258"
       ry="9.4542589"
       inkscape:transform-center-x="-62.668198"
       transform="rotate(-115.35346)"
       inkscape:transform-center-y="132.2561" />
    <ellipse
       style="fill:#ffffff;stroke:#000000;stroke-width:0.79375;stroke-dasharray:none"
       id="ellipse36"
       cx="-224.58136"
       cy="25.546749"
       rx="9.454258"
       ry="9.4542589"
       transform="rotate(-115.35346)" />
  </g>
  <g
     inkscape:groupmode="layer"
     id="layer3"
     inkscape:label="Texto">
    <path
       style="fill:none;fill-opacity:1;stroke:#000000;stroke-width:0.92;stroke-dasharray:none;stroke-dashoffset:0;stroke-opacity:1;marker-start:url(#Triangle)"
       d="m 466.60077,215.02956 2.72047,90.72163"
       id="path36" />
    <path
       style="fill:none;fill-opacity:1;stroke:#000000;stroke-width:0.92;stroke-dasharray:none;stroke-dashoffset:0;stroke-opacity:1;marker-start:url(#Triangle)"
       d="m 308.8976,156.34711 43.84455,79.46994"
       id="path37" />
    <path
       style="fill:none;fill-opacity:1;stroke:#000000;stroke-width:0.92;stroke-dasharray:none;stroke-dashoffset:0;stroke-opacity:1;marker-start:url(#Triangle)"
       d="m 194.13961,187.73065 0.0155,-90.762409"
       id="path38" />
    <path
       style="fill:none;fill-opacity:1;stroke:#000000;stroke-width:0.92;stroke-dasharray:none;stroke-dashoffset:0;stroke-opacity:1;marker-start:url(#Triangle)"
       d="m 175.90849,279.95082 90.18152,10.25228"
       id="path39" />
    <text
       xml:space="preserve"
       style="font-size:17.465px;fill:#000000;fill-opacity:1;stroke:none;stroke-width:5.06072;stroke-dasharray:none;stroke-dashoffset:0;stroke-opacity:1"
       x="148.77577"
       y="93.275284"
       id="text39"
       transform="scale(1.0202841,0.98011918)"><tspan
         sodipodi:role="line"
         id="tspan39"
         style="fill:#000000;fill-opacity:1;stroke:none;stroke-width:5.06072"
         x="148.77577"
         y="93.275284">Eslabón 2</tspan></text>
    <text
       xml:space="preserve"
       style="font-size:17.465px;fill:#000000;fill-opacity:1;stroke:none;stroke-width:5.06072;stroke-dasharray:none;stroke-dashoffset:0;stroke-opacity:1"
       x="304.63959"
       y="259.10544"
       id="text40"
       transform="scale(1.0202841,0.98011917)"><tspan
         sodipodi:role="line"
         id="tspan40"
         style="fill:#000000;fill-opacity:1;stroke:none;stroke-width:5.06072"
         x="304.63959"
         y="259.10544">Eslabón 3</tspan></text>
    <text
       xml:space="preserve"
       style="font-size:17.465px;fill:#000000;fill-opacity:1;stroke:none;stroke-width:5.06072;stroke-dasharray:none;stroke-dashoffset:0;stroke-opacity:1"
       x="416.95322"
       y="327.1077"
       id="text41"
       transform="scale(1.0202841,0.98011917)"><tspan
         sodipodi:role="line"
         id="tspan41"
         style="fill:#000000;fill-opacity:1;stroke:none;stroke-width:5.06072"
         x="416.95322"
         y="327.1077">Eslabón 4</tspan></text>
    <text
       xml:space="preserve"
       style="font-size:17.465px;fill:#000000;fill-opacity:1;stroke:none;stroke-width:5.06072;stroke-dasharray:none;stroke-dashoffset:0;stroke-opacity:1"
       x="264.52756"
       y="306.82632"
       id="text42"
       transform="scale(1.0202841,0.98011917)"><tspan
         sodipodi:role="line"
         id="tspan42"
         style="fill:#000000;fill-opacity:1;stroke:none;stroke-width:5.06072"
         x="264.52756"
         y="306.82632">Eslabón 1</tspan></text>
  </g>
</svg>
