<?xml version="1.0" encoding="UTF-8" standalone="no"?>
<!-- Created with Inkscape (http://www.inkscape.org/) -->

<svg
   width="297mm"
   height="210mm"
   viewBox="0 0 297 210"
   version="1.1"
   id="svg1"
   inkscape:version="1.3 (0e150ed, 2023-07-21)"
   sodipodi:docname="Solución Reto 7.svg"
   xmlns:inkscape="http://www.inkscape.org/namespaces/inkscape"
   xmlns:sodipodi="http://sodipodi.sourceforge.net/DTD/sodipodi-0.dtd"
   xmlns="http://www.w3.org/2000/svg"
   xmlns:svg="http://www.w3.org/2000/svg">
  <sodipodi:namedview
     id="namedview1"
     pagecolor="#ffffff"
     bordercolor="#000000"
     borderopacity="0.25"
     inkscape:showpageshadow="2"
     inkscape:pageopacity="0.0"
     inkscape:pagecheckerboard="0"
     inkscape:deskcolor="#d1d1d1"
     inkscape:document-units="mm"
     inkscape:zoom="0.6349676"
     inkscape:cx="570.10783"
     inkscape:cy="403.17017"
     inkscape:window-width="1312"
     inkscape:window-height="704"
     inkscape:window-x="54"
     inkscape:window-y="27"
     inkscape:window-maximized="1"
     inkscape:current-layer="layer1" />
  <defs
     id="defs1" />
  <g
     inkscape:label="Capa 1"
     inkscape:groupmode="layer"
     id="layer1">
    <path
       id="rect1"
       style="fill:#0000ff;stroke:#000000;stroke-width:1.49867"
       d="M 25.638213,29.937572 V 52.366831 74.79609 H 48.067472 70.496731 92.925987 V 52.366831 H 70.496731 48.067472 V 29.937572 Z" />
    <path
       id="rect5"
       style="fill:#008000;stroke:#000000;stroke-width:1.35687"
       d="m 158.65352,135.51177 v 20.30705 h -20.30705 -20.30706 v 20.30708 h 20.30706 20.30705 20.30707 v -20.30708 -20.30705 z" />
    <path
       id="rect9"
       style="fill:#ff0000;stroke:#000000;stroke-width:1.39477"
       d="m 35.586897,134.94445 v 20.87439 20.87438 H 56.461285 77.335672 V 155.81884 134.94445 H 56.461285 Z" />
    <path
       id="rect13"
       style="fill:#ff0000;stroke:#000000;stroke-width:1.54336"
       d="m 148.76402,28.577571 v 23.098093 h -23.09808 v 23.098081 h 23.09808 23.09809 V 51.675664 h 23.09734 V 28.577571 h -23.09734 z" />
    <path
       id="rect17"
       style="fill:#ffff00;stroke:#000000;stroke-width:1.54336"
       d="m 235.43431,28.577569 v 23.098082 h -23.09734 v 23.098096 h 23.09734 23.09808 23.09809 V 51.675651 H 258.53239 V 28.577569 Z" />
    <path
       id="rect21"
       style="fill:#00ffff;stroke:#000000;stroke-width:1.42401"
       d="m 202.27677,154.78041 v 21.31192 h 21.31194 21.31192 21.31193 21.31124 v -21.31192 h -21.31124 -21.31193 -21.31192 z" />
  </g>
</svg>
