<?xml version="1.0" encoding="UTF-8" standalone="no"?>
<!-- Created with Inkscape (http://www.inkscape.org/) -->

<svg
   width="297mm"
   height="210mm"
   viewBox="0 0 297 210"
   version="1.1"
   id="svg1"
   inkscape:version="1.3 (0e150ed, 2023-07-21)"
   sodipodi:docname="Solución Reto 8.svg"
   xmlns:inkscape="http://www.inkscape.org/namespaces/inkscape"
   xmlns:sodipodi="http://sodipodi.sourceforge.net/DTD/sodipodi-0.dtd"
   xmlns="http://www.w3.org/2000/svg"
   xmlns:svg="http://www.w3.org/2000/svg">
  <sodipodi:namedview
     id="namedview1"
     pagecolor="#ffffff"
     bordercolor="#000000"
     borderopacity="0.25"
     inkscape:showpageshadow="2"
     inkscape:pageopacity="0.0"
     inkscape:pagecheckerboard="0"
     inkscape:deskcolor="#d1d1d1"
     inkscape:document-units="mm"
     inkscape:zoom="0.6349676"
     inkscape:cx="565.38317"
     inkscape:cy="398.44552"
     inkscape:window-width="1312"
     inkscape:window-height="704"
     inkscape:window-x="54"
     inkscape:window-y="27"
     inkscape:window-maximized="1"
     inkscape:current-layer="svg1" />
  <defs
     id="defs1" />
  <g
     inkscape:label="Capa 1"
     inkscape:groupmode="layer"
     id="layer1">
    <path
       id="rect3"
       style="fill:#ffff00;stroke:#000000;stroke-width:1.058"
       d="m 75.588063,33.404099 a 7.2920384,7.5003824 42.723319 0 0 7.392339,1.438779 L 142.94639,90.223117 147.75247,85.01908 87.786476,29.638842 a 7.2920384,7.5003824 42.723319 0 0 -2.021102,-7.254788 7.2920384,7.5003824 42.723319 0 0 -10.445684,0.562661 7.2920384,7.5003824 42.723319 0 0 0.268373,10.457384 z" />
    <path
       id="path3"
       style="fill:#ffff00;stroke:#000000;stroke-width:1.058"
       d="m 207.7115,19.969711 a 7.5003824,7.2920384 45.308599 0 0 -1.77075,7.319918 l -58.02872,57.406968 4.98195,5.035913 58.02873,-57.406968 a 7.5003824,7.2920384 45.308599 0 0 7.33856,-1.691804 7.5003824,7.2920384 45.308599 0 0 -0.0909,-10.46043 7.5003824,7.2920384 45.308599 0 0 -10.45885,-0.203597 z" />
  </g>
  <path
     id="rect1"
     style="fill:#008080;stroke:#000000;stroke-width:1.058"
     d="M 91.744571,75.420455 V 97.088381 H 67.576536 v 24.168029 h 24.168035 v 65.00327 H 202.58328 v -65.00327 h 24.16803 V 97.088381 H 202.58328 V 75.420455 Z" />
  <circle
     style="fill:#ffffff;stroke:#000000;stroke-width:1.058"
     id="path4"
     cx="124.32134"
     cy="114.34414"
     r="15.417454" />
  <circle
     style="fill:#000000;stroke:#000000;stroke-width:1.058"
     id="path5"
     cx="120.66718"
     cy="118.9644"
     r="8.9587908" />
  <circle
     style="fill:#ffffff;stroke:#000000;stroke-width:1.058"
     id="circle5"
     cx="167.2561"
     cy="114.58916"
     r="15.417454" />
  <circle
     style="fill:#000000;stroke:#000000;stroke-width:1.058"
     id="circle6"
     cx="162.88089"
     cy="118.96439"
     r="8.9587908" />
  <rect
     style="fill:#ffffff;stroke:#000000;stroke-width:1.18685"
     id="rect6"
     width="4.2322507"
     height="14.455232"
     x="163.83006"
     y="156.32239" />
  <rect
     style="fill:#ffffff;stroke:#000000;stroke-width:1.18685"
     id="rect7"
     width="4.2322507"
     height="14.455232"
     x="122.44987"
     y="156.32239" />
  <rect
     style="fill:#ffffff;stroke:#000000;stroke-width:1.18685"
     id="rect8"
     width="4.2322507"
     height="14.455232"
     x="127.75672"
     y="156.32239" />
  <rect
     style="fill:#ffffff;stroke:#000000;stroke-width:1.18685"
     id="rect9"
     width="4.2322507"
     height="14.455232"
     x="133.06355"
     y="156.32239" />
  <rect
     style="fill:#ffffff;stroke:#000000;stroke-width:1.18685"
     id="rect10"
     width="4.2322507"
     height="14.455232"
     x="138.37041"
     y="156.32239" />
  <rect
     style="fill:#ffffff;stroke:#000000;stroke-width:1.18685"
     id="rect11"
     width="4.2322507"
     height="14.455232"
     x="143.67726"
     y="156.32239" />
  <rect
     style="fill:#ffffff;stroke:#000000;stroke-width:1.18685"
     id="rect12"
     width="4.2322507"
     height="14.455232"
     x="148.9841"
     y="156.32239" />
  <rect
     style="fill:#ffffff;stroke:#000000;stroke-width:1.18685"
     id="rect13"
     width="4.2322507"
     height="14.455232"
     x="154.29095"
     y="156.32239" />
  <rect
     style="fill:#ffffff;stroke:#000000;stroke-width:1.18685"
     id="rect14"
     width="4.2322507"
     height="14.455232"
     x="159.59781"
     y="156.32239" />
</svg>
